<?xml version="1.0" encoding="UTF-8" standalone="no"?>
<!DOCTYPE svg PUBLIC "-//W3C//DTD SVG 1.0//EN"
 "http://www.w3.org/TR/2001/REC-SVG-20010904/DTD/svg10.dtd" [
 <!ATTLIST svg xmlns:xlink CDATA #FIXED "http://www.w3.org/1999/xlink">
]>
<!-- Generated by Graphviz version 2.16 (Fri Feb  8 12:54:58 UTC 2008)
     For user: (astraw) astraw,,, -->
<!-- Title: G Pages: 1 -->
<svg width="432pt" height="270pt"
 viewBox="0.00 0.00 432.00 270.30" xmlns="http://www.w3.org/2000/svg" xmlns:xlink="http://www.w3.org/1999/xlink">
<g id="graph0" class="graph" transform="scale(0.596685 0.596685) rotate(0) translate(4 448.5)">
<title>G</title>
<polygon style="fill:white;stroke:white;" points="-4,4 -4,-448.5 720,-448.5 720,4 -4,4"/>
<g id="cluster2" class="cluster"><title>cluster0</title>
<polygon style="fill:none;stroke:black;" points="90,-144 90,-437 632,-437 632,-144 90,-144"/>
<text text-anchor="middle" x="154" y="-420.65" style="font-family:Times New Roman;font-size:14.00;">packages in motmot</text>
</g>
<!-- cam_iface -->
<g id="node2" class="node"><title>cam_iface</title>
<ellipse style="fill:none;stroke:black;" cx="372" cy="-170" rx="52.8241" ry="18"/>
<text text-anchor="middle" x="372" y="-165.65" style="font-family:Times New Roman;font-size:14.00;">cam_iface (C)</text>
</g>
<!-- py_cam_iface -->
<g id="node4" class="node"><title>py_cam_iface</title>
<ellipse style="fill:none;stroke:black;" cx="372" cy="-242" rx="67.8241" ry="18"/>
<text text-anchor="middle" x="372" y="-237.65" style="font-family:Times New Roman;font-size:14.00;">cam_iface (Python)</text>
</g>
<!-- cam_iface&#45;&gt;py_cam_iface -->
<g id="edge3" class="edge"><title>cam_iface&#45;&gt;py_cam_iface</title>
<path style="fill:none;stroke:black;" d="M372,-188C372,-196 372,-205 372,-214"/>
<polygon style="fill:black;stroke:black;" points="368.5,-214 372,-224 375.5,-214 368.5,-214"/>
</g>
<!-- fview -->
<g id="node6" class="node"><title>fview</title>
<polygon style="fill:lightgrey;stroke:black;" points="350,-332 296,-332 296,-296 350,-296 350,-332"/>
<text text-anchor="middle" x="323" y="-309.65" style="font-family:Times New Roman;font-size:14.00;">fview</text>
</g>
<!-- py_cam_iface&#45;&gt;fview -->
<g id="edge5" class="edge"><title>py_cam_iface&#45;&gt;fview</title>
<path style="fill:none;stroke:black;" d="M360,-260C354,-268 347,-278 341,-288"/>
<polygon style="fill:black;stroke:black;" points="338.2,-285.9 335,-296 343.8,-290.1 338.2,-285.9"/>
</g>
<!-- flytrax -->
<g id="node9" class="node"><title>flytrax</title>
<polygon style="fill:lightgrey;stroke:black;" points="350,-404 296,-404 296,-368 350,-368 350,-404"/>
<text text-anchor="middle" x="323" y="-381.65" style="font-family:Times New Roman;font-size:14.00;">flytrax</text>
</g>
<!-- fview&#45;&gt;flytrax -->
<g id="edge9" class="edge"><title>fview&#45;&gt;flytrax</title>
<path style="fill:none;stroke:black;" d="M317,-332C316,-340 316,-349 316,-358"/>
<polygon style="fill:black;stroke:black;" points="312.522,-358.398 317,-368 319.488,-357.701 312.522,-358.398"/>
</g>
<!-- trackem -->
<g id="node28" class="node"><title>trackem</title>
<polygon style="fill:lightgrey;stroke:black;" points="453.125,-404 392.875,-404 392.875,-368 453.125,-368 453.125,-404"/>
<text text-anchor="middle" x="423" y="-381.65" style="font-family:Times New Roman;font-size:14.00;">trackem</text>
</g>
<!-- fview&#45;&gt;trackem -->
<g id="edge35" class="edge"><title>fview&#45;&gt;trackem</title>
<path style="fill:none;stroke:black;" d="M342,-332C354,-341 370,-352 384,-362"/>
<polygon style="fill:black;stroke:black;" points="382.738,-365.365 393,-368 386.621,-359.541 382.738,-365.365"/>
</g>
<!-- wxvideo -->
<g id="node7" class="node"><title>wxvideo</title>
<ellipse style="fill:none;stroke:black;" cx="156" cy="-314" rx="36.1964" ry="18"/>
<text text-anchor="middle" x="156" y="-309.65" style="font-family:Times New Roman;font-size:14.00;">wxvideo</text>
</g>
<!-- wxvideo&#45;&gt;flytrax -->
<g id="edge7" class="edge"><title>wxvideo&#45;&gt;flytrax</title>
<path style="fill:none;stroke:black;" d="M184,-326C212,-338 255,-357 286,-370"/>
<polygon style="fill:black;stroke:black;" points="285.415,-373.536 296,-374 288.015,-367.036 285.415,-373.536"/>
</g>
<!-- flytrax&#45;&gt;fview -->
<g id="edge25" class="edge"><title>flytrax&#45;&gt;fview</title>
<path style="fill:none;stroke:black;stroke-dasharray:1,5;" d="M329,-368C330,-360 330,-351 330,-342"/>
<polygon style="fill:black;stroke:black;" points="333.478,-341.602 329,-332 326.512,-342.299 333.478,-341.602"/>
</g>
<!-- camtrig -->
<g id="node11" class="node"><title>camtrig</title>
<ellipse style="fill:none;stroke:black;" cx="491" cy="-242" rx="33.1961" ry="18"/>
<text text-anchor="middle" x="491" y="-237.65" style="font-family:Times New Roman;font-size:14.00;">camtrig</text>
</g>
<!-- camtrig&#45;&gt;fview -->
<g id="edge11" class="edge"><title>camtrig&#45;&gt;fview</title>
<path style="fill:none;stroke:black;" d="M465,-253C460,-256 454,-258 449,-260 413,-276 401,-279 359,-296"/>
<polygon style="fill:black;stroke:black;" points="357.717,-292.74 350,-300 360.56,-299.137 357.717,-292.74"/>
</g>
<!-- pygarrayimage -->
<g id="node13" class="node"><title>pygarrayimage</title>
<ellipse style="fill:none;stroke:black;" cx="571" cy="-170" rx="53.0734" ry="18"/>
<text text-anchor="middle" x="571" y="-165.65" style="font-family:Times New Roman;font-size:14.00;">pygarrayimage</text>
</g>
<!-- wxglvideo -->
<g id="node15" class="node"><title>wxglvideo</title>
<ellipse style="fill:none;stroke:black;" cx="583" cy="-242" rx="41.0732" ry="18"/>
<text text-anchor="middle" x="583" y="-237.65" style="font-family:Times New Roman;font-size:14.00;">wxglvideo</text>
</g>
<!-- pygarrayimage&#45;&gt;wxglvideo -->
<g id="edge13" class="edge"><title>pygarrayimage&#45;&gt;wxglvideo</title>
<path style="fill:none;stroke:black;" d="M574,-188C575,-196 577,-205 578,-214"/>
<polygon style="fill:black;stroke:black;" points="574.607,-214.881 580,-224 581.471,-213.508 574.607,-214.881"/>
</g>
<!-- wxglvideo&#45;&gt;fview -->
<g id="edge15" class="edge"><title>wxglvideo&#45;&gt;fview</title>
<path style="fill:none;stroke:black;" d="M552,-254C546,-256 539,-258 533,-260 460,-281 436,-272 360,-297"/>
<polygon style="fill:black;stroke:black;" points="358.573,-293.774 350,-300 360.584,-300.479 358.573,-293.774"/>
</g>
<!-- realtime_image_analysis -->
<g id="node17" class="node"><title>realtime_image_analysis</title>
<ellipse style="fill:none;stroke:black;" cx="448" cy="-314" rx="79.8241" ry="18"/>
<text text-anchor="middle" x="448" y="-309.65" style="font-family:Times New Roman;font-size:14.00;">realtime_image_analysis</text>
</g>
<!-- realtime_image_analysis&#45;&gt;flytrax -->
<g id="edge17" class="edge"><title>realtime_image_analysis&#45;&gt;flytrax</title>
<path style="fill:none;stroke:black;" d="M419,-331C401,-341 378,-355 359,-365"/>
<polygon style="fill:black;stroke:black;" points="357.042,-362.084 350,-370 360.441,-368.203 357.042,-362.084"/>
</g>
<!-- realtime_image_analysis&#45;&gt;trackem -->
<g id="edge31" class="edge"><title>realtime_image_analysis&#45;&gt;trackem</title>
<path style="fill:none;stroke:black;" d="M442,-332C439,-340 436,-350 432,-358"/>
<polygon style="fill:black;stroke:black;" points="428.521,-357.416 429,-368 435.226,-359.427 428.521,-357.416"/>
</g>
<!-- fastimage -->
<g id="node19" class="node"><title>fastimage</title>
<ellipse style="fill:none;stroke:black;" cx="585" cy="-314" rx="38.8263" ry="18"/>
<text text-anchor="middle" x="585" y="-309.65" style="font-family:Times New Roman;font-size:14.00;">fastimage</text>
</g>
<!-- fastimage&#45;&gt;flytrax -->
<g id="edge19" class="edge"><title>fastimage&#45;&gt;flytrax</title>
<path style="fill:none;stroke:black;" d="M555,-326C549,-328 543,-330 537,-332 471,-353 452,-351 384,-368 376,-370 368,-373 360,-375"/>
<polygon style="fill:black;stroke:black;" points="358.573,-371.774 350,-378 360.584,-378.479 358.573,-371.774"/>
</g>
<!-- fastimage&#45;&gt;trackem -->
<g id="edge29" class="edge"><title>fastimage&#45;&gt;trackem</title>
<path style="fill:none;stroke:black;" d="M557,-327C531,-338 492,-355 462,-369"/>
<polygon style="fill:black;stroke:black;" points="460.717,-365.74 453,-373 463.56,-372.137 460.717,-365.74"/>
</g>
<!-- flymovieformat -->
<g id="node21" class="node"><title>flymovieformat</title>
<ellipse style="fill:none;stroke:black;" cx="153" cy="-242" rx="54.9496" ry="18"/>
<text text-anchor="middle" x="153" y="-237.65" style="font-family:Times New Roman;font-size:14.00;">flymovieformat</text>
</g>
<!-- flymovieformat&#45;&gt;fview -->
<g id="edge21" class="edge"><title>flymovieformat&#45;&gt;fview</title>
<path style="fill:none;stroke:black;" d="M187,-256C216,-269 257,-286 286,-298"/>
<polygon style="fill:black;stroke:black;" points="285.415,-301.536 296,-302 288.015,-295.036 285.415,-301.536"/>
</g>
<!-- flymovieformat&#45;&gt;flytrax -->
<g id="edge23" class="edge"><title>flymovieformat&#45;&gt;flytrax</title>
<path style="fill:none;stroke:black;" d="M173,-259C203,-284 260,-332 294,-361"/>
<polygon style="fill:black;stroke:black;" points="292.169,-364.049 302,-368 296.779,-358.781 292.169,-364.049"/>
</g>
<!-- imops -->
<g id="node25" class="node"><title>imops</title>
<ellipse style="fill:none;stroke:black;" cx="256" cy="-242" rx="29.827" ry="18"/>
<text text-anchor="middle" x="256" y="-237.65" style="font-family:Times New Roman;font-size:14.00;">imops</text>
</g>
<!-- imops&#45;&gt;fview -->
<g id="edge27" class="edge"><title>imops&#45;&gt;fview</title>
<path style="fill:none;stroke:black;" d="M271,-258C280,-267 290,-278 299,-288"/>
<polygon style="fill:black;stroke:black;" points="296.781,-290.779 306,-296 302.049,-286.169 296.781,-290.779"/>
</g>
<!-- trackem&#45;&gt;fview -->
<g id="edge33" class="edge"><title>trackem&#45;&gt;fview</title>
<path style="fill:none;stroke:black;stroke-dasharray:1,5;" d="M404,-368C390,-358 373,-346 358,-335"/>
<polygon style="fill:black;stroke:black;" points="360.1,-332.2 350,-329 355.9,-337.8 360.1,-332.2"/>
</g>
<!-- quicktime -->
<g id="node32" class="node"><title>quicktime</title>
<ellipse style="fill:none;stroke:black;" cx="372" cy="-98" rx="44.1991" ry="18"/>
<text text-anchor="middle" x="372" y="-93.65" style="font-family:Times New Roman;font-size:14.00;">QuickTime</text>
</g>
<!-- quicktime&#45;&gt;cam_iface -->
<g id="edge37" class="edge"><title>quicktime&#45;&gt;cam_iface</title>
<path style="fill:none;stroke:black;" d="M372,-116C372,-124 372,-133 372,-142"/>
<polygon style="fill:black;stroke:black;" points="368.5,-142 372,-152 375.5,-142 368.5,-142"/>
</g>
<!-- libdc1394 -->
<g id="node34" class="node"><title>libdc1394</title>
<ellipse style="fill:none;stroke:black;" cx="474" cy="-98" rx="39.9497" ry="18"/>
<text text-anchor="middle" x="474" y="-93.65" style="font-family:Times New Roman;font-size:14.00;">libdc1394</text>
</g>
<!-- libdc1394&#45;&gt;cam_iface -->
<g id="edge39" class="edge"><title>libdc1394&#45;&gt;cam_iface</title>
<path style="fill:none;stroke:black;" d="M452,-113C438,-123 419,-136 403,-148"/>
<polygon style="fill:black;stroke:black;" points="400.9,-145.2 395,-154 405.1,-150.8 400.9,-145.2"/>
</g>
<!-- libprosilica -->
<g id="node36" class="node"><title>libprosilica</title>
<ellipse style="fill:none;stroke:black;" cx="267" cy="-98" rx="42.9497" ry="18"/>
<text text-anchor="middle" x="267" y="-93.65" style="font-family:Times New Roman;font-size:14.00;">libprosilica</text>
</g>
<!-- libprosilica&#45;&gt;cam_iface -->
<g id="edge41" class="edge"><title>libprosilica&#45;&gt;cam_iface</title>
<path style="fill:none;stroke:black;" d="M290,-113C304,-123 323,-137 340,-148"/>
<polygon style="fill:black;stroke:black;" points="337.9,-150.8 348,-154 342.1,-145.2 337.9,-150.8"/>
</g>
<!-- wxpython -->
<g id="node38" class="node"><title>wxpython</title>
<ellipse style="fill:none;stroke:black;" cx="41" cy="-170" rx="41.1991" ry="18"/>
<text text-anchor="middle" x="41" y="-165.65" style="font-family:Times New Roman;font-size:14.00;">wxPython</text>
</g>
<!-- wxpython&#45;&gt;wxvideo -->
<g id="edge45" class="edge"><title>wxpython&#45;&gt;wxvideo</title>
<path style="fill:none;stroke:black;" d="M48,-188C56,-207 71,-238 89,-260 100,-273 113,-285 126,-294"/>
<polygon style="fill:black;stroke:black;" points="123.9,-296.8 134,-300 128.1,-291.2 123.9,-296.8"/>
</g>
<!-- wxpython&#45;&gt;wxglvideo -->
<g id="edge43" class="edge"><title>wxpython&#45;&gt;wxglvideo</title>
<path style="fill:none;stroke:black;" d="M70,-183C75,-185 81,-187 86,-188 281,-234 339,-182 533,-224 537,-225 540,-226 543,-227"/>
<polygon style="fill:black;stroke:black;" points="542.416,-230.479 553,-230 544.427,-223.774 542.416,-230.479"/>
</g>
<!-- opengl -->
<g id="node41" class="node"><title>opengl</title>
<a xlink:href="http://opengl.org/" xlink:title="OpenGL plotting library">
<ellipse style="fill:none;stroke:black;" cx="571" cy="-26" rx="37.8241" ry="18"/>
<text text-anchor="middle" x="571" y="-21.65" style="font-family:Times New Roman;font-size:14.00;">OpenGL</text>
</a>
</g>
<!-- pyglet -->
<g id="node43" class="node"><title>pyglet</title>
<ellipse style="fill:none;stroke:black;" cx="571" cy="-98" rx="29.9491" ry="18"/>
<text text-anchor="middle" x="571" y="-93.65" style="font-family:Times New Roman;font-size:14.00;">pyglet</text>
</g>
<!-- opengl&#45;&gt;pyglet -->
<g id="edge47" class="edge"><title>opengl&#45;&gt;pyglet</title>
<path style="fill:none;stroke:black;" d="M571,-44C571,-52 571,-61 571,-70"/>
<polygon style="fill:black;stroke:black;" points="567.5,-70 571,-80 574.5,-70 567.5,-70"/>
</g>
<!-- pyglet&#45;&gt;pygarrayimage -->
<g id="edge49" class="edge"><title>pyglet&#45;&gt;pygarrayimage</title>
<path style="fill:none;stroke:black;" d="M571,-116C571,-124 571,-133 571,-142"/>
<polygon style="fill:black;stroke:black;" points="567.5,-142 571,-152 574.5,-142 567.5,-142"/>
</g>
<!-- ipp -->
<g id="node45" class="node"><title>ipp</title>
<ellipse style="fill:none;stroke:black;" cx="679" cy="-242" rx="36.9498" ry="18"/>
<text text-anchor="middle" x="679" y="-237.65" style="font-family:Times New Roman;font-size:14.00;">Intel IPP</text>
</g>
<!-- ipp&#45;&gt;realtime_image_analysis -->
<g id="edge51" class="edge"><title>ipp&#45;&gt;realtime_image_analysis</title>
<path style="fill:none;stroke:black;" d="M652,-254C646,-256 641,-258 636,-260 595,-275 548,-288 511,-297"/>
<polygon style="fill:black;stroke:black;" points="509.573,-293.774 501,-300 511.584,-300.479 509.573,-293.774"/>
</g>
<!-- ipp&#45;&gt;fastimage -->
<g id="edge53" class="edge"><title>ipp&#45;&gt;fastimage</title>
<path style="fill:none;stroke:black;" d="M659,-257C646,-267 628,-281 613,-292"/>
<polygon style="fill:black;stroke:black;" points="610.9,-289.2 605,-298 615.1,-294.8 610.9,-289.2"/>
</g>
</g>
</svg>
