<?xml version="1.0" encoding="UTF-8" standalone="no"?>
<!DOCTYPE svg PUBLIC "-//W3C//DTD SVG 1.0//EN"
 "http://www.w3.org/TR/2001/REC-SVG-20010904/DTD/svg10.dtd" [
 <!ATTLIST svg xmlns:xlink CDATA #FIXED "http://www.w3.org/1999/xlink">
]>
<!-- Generated by Graphviz version 2.16 (Fri Feb  8 12:54:58 UTC 2008)
     For user: (astraw) Andrew Straw,,, -->
<!-- Title: G Pages: 1 -->
<svg width="432pt" height="281pt"
 viewBox="0.00 0.00 432.00 281.17" xmlns="http://www.w3.org/2000/svg" xmlns:xlink="http://www.w3.org/1999/xlink">
<g id="graph0" class="graph" transform="scale(0.62069 0.62069) rotate(0) translate(4 448.722)">
<title>G</title>
<polygon style="fill:white;stroke:white;" points="-4,4 -4,-448.722 692,-448.722 692,4 -4,4"/>
<g id="cluster2" class="cluster"><title>cluster0</title>
<polygon style="fill:none;stroke:black;" points="90,-144 90,-437 604,-437 604,-144 90,-144"/>
<text text-anchor="middle" x="154" y="-420.65" style="font-family:Times New Roman;font-size:14.00;">packages in motmot</text>
</g>
<!-- libcamiface -->
<g id="node2" class="node"><title>libcamiface</title>
<ellipse style="fill:none;stroke:black;" cx="420" cy="-170" rx="55.8241" ry="18"/>
<text text-anchor="middle" x="420" y="-165.65" style="font-family:Times New Roman;font-size:14.00;">libcamiface (C)</text>
</g>
<!-- cam_iface -->
<g id="node4" class="node"><title>cam_iface</title>
<ellipse style="fill:none;stroke:black;" cx="404" cy="-242" rx="67.8241" ry="18"/>
<text text-anchor="middle" x="404" y="-237.65" style="font-family:Times New Roman;font-size:14.00;">cam_iface (Python)</text>
</g>
<!-- libcamiface&#45;&gt;cam_iface -->
<g id="edge3" class="edge"><title>libcamiface&#45;&gt;cam_iface</title>
<path style="fill:none;stroke:black;" d="M416,-188C414,-196 412,-205 410,-214"/>
<polygon style="fill:black;stroke:black;" points="406.529,-213.508 408,-224 413.393,-214.881 406.529,-213.508"/>
</g>
<!-- fview -->
<g id="node6" class="node"><title>fview</title>
<polygon style="fill:lightgrey;stroke:black;" points="313,-332 259,-332 259,-296 313,-296 313,-332"/>
<text text-anchor="middle" x="286" y="-309.65" style="font-family:Times New Roman;font-size:14.00;">fview</text>
</g>
<!-- cam_iface&#45;&gt;fview -->
<g id="edge5" class="edge"><title>cam_iface&#45;&gt;fview</title>
<path style="fill:none;stroke:black;" d="M377,-259C361,-268 340,-281 322,-292"/>
<polygon style="fill:black;stroke:black;" points="320.042,-289.084 313,-297 323.441,-295.203 320.042,-289.084"/>
</g>
<!-- flytrax -->
<g id="node8" class="node"><title>flytrax</title>
<polygon style="fill:lightgrey;stroke:black;" points="313,-404 259,-404 259,-368 313,-368 313,-404"/>
<text text-anchor="middle" x="286" y="-381.65" style="font-family:Times New Roman;font-size:14.00;">flytrax</text>
</g>
<!-- fview&#45;&gt;flytrax -->
<g id="edge7" class="edge"><title>fview&#45;&gt;flytrax</title>
<path style="fill:none;stroke:black;" d="M280,-332C279,-340 279,-349 279,-358"/>
<polygon style="fill:black;stroke:black;" points="275.522,-358.398 280,-368 282.488,-357.701 275.522,-358.398"/>
</g>
<!-- trackem -->
<g id="node24" class="node"><title>trackem</title>
<polygon style="fill:lightgrey;stroke:black;" points="416.125,-404 355.875,-404 355.875,-368 416.125,-368 416.125,-404"/>
<text text-anchor="middle" x="386" y="-381.65" style="font-family:Times New Roman;font-size:14.00;">trackem</text>
</g>
<!-- fview&#45;&gt;trackem -->
<g id="edge31" class="edge"><title>fview&#45;&gt;trackem</title>
<path style="fill:none;stroke:black;" d="M305,-332C317,-341 333,-352 347,-362"/>
<polygon style="fill:black;stroke:black;" points="345.738,-365.365 356,-368 349.621,-359.541 345.738,-365.365"/>
</g>
<!-- flytrax&#45;&gt;fview -->
<g id="edge23" class="edge"><title>flytrax&#45;&gt;fview</title>
<path style="fill:none;stroke:black;stroke-dasharray:1,5;" d="M292,-368C293,-360 293,-351 293,-342"/>
<polygon style="fill:black;stroke:black;" points="296.478,-341.602 292,-332 289.512,-342.299 296.478,-341.602"/>
</g>
<!-- fview_ext_trig -->
<g id="node9" class="node"><title>fview_ext_trig</title>
<ellipse style="fill:none;stroke:black;" cx="543" cy="-242" rx="52.8241" ry="18"/>
<text text-anchor="middle" x="543" y="-237.65" style="font-family:Times New Roman;font-size:14.00;">fview_ext_trig</text>
</g>
<!-- fview_ext_trig&#45;&gt;fview -->
<g id="edge9" class="edge"><title>fview_ext_trig&#45;&gt;fview</title>
<path style="fill:none;stroke:black;" d="M503,-254C496,-256 488,-258 481,-260 413,-278 393,-273 323,-297"/>
<polygon style="fill:black;stroke:black;" points="321.573,-293.774 313,-300 323.584,-300.479 321.573,-293.774"/>
</g>
<!-- pygarrayimage -->
<g id="node11" class="node"><title>pygarrayimage</title>
<ellipse style="fill:none;stroke:black;" cx="260" cy="-170" rx="53.0734" ry="18"/>
<text text-anchor="middle" x="260" y="-165.65" style="font-family:Times New Roman;font-size:14.00;">pygarrayimage</text>
</g>
<!-- wxglvideo -->
<g id="node13" class="node"><title>wxglvideo</title>
<ellipse style="fill:none;stroke:black;" cx="277" cy="-242" rx="41.0732" ry="18"/>
<text text-anchor="middle" x="277" y="-237.65" style="font-family:Times New Roman;font-size:14.00;">wxglvideo</text>
</g>
<!-- pygarrayimage&#45;&gt;wxglvideo -->
<g id="edge11" class="edge"><title>pygarrayimage&#45;&gt;wxglvideo</title>
<path style="fill:none;stroke:black;" d="M264,-188C266,-196 268,-205 270,-214"/>
<polygon style="fill:black;stroke:black;" points="266.774,-215.427 273,-224 273.479,-213.416 266.774,-215.427"/>
</g>
<!-- wxglvideo&#45;&gt;fview -->
<g id="edge13" class="edge"><title>wxglvideo&#45;&gt;fview</title>
<path style="fill:none;stroke:black;" d="M279,-260C280,-268 281,-277 282,-286"/>
<polygon style="fill:black;stroke:black;" points="278.607,-286.881 284,-296 285.471,-285.508 278.607,-286.881"/>
</g>
<!-- realtime_image_analysis -->
<g id="node15" class="node"><title>realtime_image_analysis</title>
<ellipse style="fill:none;stroke:black;" cx="411" cy="-314" rx="79.8241" ry="18"/>
<text text-anchor="middle" x="411" y="-309.65" style="font-family:Times New Roman;font-size:14.00;">realtime_image_analysis</text>
</g>
<!-- realtime_image_analysis&#45;&gt;flytrax -->
<g id="edge15" class="edge"><title>realtime_image_analysis&#45;&gt;flytrax</title>
<path style="fill:none;stroke:black;" d="M382,-331C364,-341 341,-355 322,-365"/>
<polygon style="fill:black;stroke:black;" points="320.042,-362.084 313,-370 323.441,-368.203 320.042,-362.084"/>
</g>
<!-- realtime_image_analysis&#45;&gt;trackem -->
<g id="edge27" class="edge"><title>realtime_image_analysis&#45;&gt;trackem</title>
<path style="fill:none;stroke:black;" d="M405,-332C402,-340 399,-350 395,-358"/>
<polygon style="fill:black;stroke:black;" points="391.521,-357.416 392,-368 398.226,-359.427 391.521,-357.416"/>
</g>
<!-- fastimage -->
<g id="node17" class="node"><title>fastimage</title>
<ellipse style="fill:none;stroke:black;" cx="548" cy="-314" rx="38.8263" ry="18"/>
<text text-anchor="middle" x="548" y="-309.65" style="font-family:Times New Roman;font-size:14.00;">fastimage</text>
</g>
<!-- fastimage&#45;&gt;flytrax -->
<g id="edge17" class="edge"><title>fastimage&#45;&gt;flytrax</title>
<path style="fill:none;stroke:black;" d="M518,-326C512,-328 506,-330 500,-332 433,-353 414,-351 347,-368 339,-370 331,-373 323,-375"/>
<polygon style="fill:black;stroke:black;" points="321.573,-371.774 313,-378 323.584,-378.479 321.573,-371.774"/>
</g>
<!-- fastimage&#45;&gt;trackem -->
<g id="edge25" class="edge"><title>fastimage&#45;&gt;trackem</title>
<path style="fill:none;stroke:black;" d="M520,-327C494,-338 455,-355 425,-369"/>
<polygon style="fill:black;stroke:black;" points="423.717,-365.74 416,-373 426.56,-372.137 423.717,-365.74"/>
</g>
<!-- FlyMovieFormat -->
<g id="node19" class="node"><title>FlyMovieFormat</title>
<ellipse style="fill:none;stroke:black;" cx="158" cy="-242" rx="59.9491" ry="18"/>
<text text-anchor="middle" x="158" y="-237.65" style="font-family:Times New Roman;font-size:14.00;">FlyMovieFormat</text>
</g>
<!-- FlyMovieFormat&#45;&gt;fview -->
<g id="edge19" class="edge"><title>FlyMovieFormat&#45;&gt;fview</title>
<path style="fill:none;stroke:black;" d="M186,-258C205,-268 230,-283 250,-294"/>
<polygon style="fill:black;stroke:black;" points="248.559,-297.203 259,-299 251.958,-291.084 248.559,-297.203"/>
</g>
<!-- FlyMovieFormat&#45;&gt;flytrax -->
<g id="edge21" class="edge"><title>FlyMovieFormat&#45;&gt;flytrax</title>
<path style="fill:none;stroke:black;" d="M174,-260C196,-285 237,-331 263,-360"/>
<polygon style="fill:black;stroke:black;" points="260.781,-362.779 270,-368 266.049,-358.169 260.781,-362.779"/>
</g>
<!-- trackem&#45;&gt;fview -->
<g id="edge29" class="edge"><title>trackem&#45;&gt;fview</title>
<path style="fill:none;stroke:black;stroke-dasharray:1,5;" d="M367,-368C353,-358 336,-346 321,-335"/>
<polygon style="fill:black;stroke:black;" points="323.1,-332.2 313,-329 318.9,-337.8 323.1,-332.2"/>
</g>
<!-- quicktime -->
<g id="node28" class="node"><title>quicktime</title>
<ellipse style="fill:none;stroke:black;" cx="335" cy="-98" rx="44.1991" ry="18"/>
<text text-anchor="middle" x="335" y="-93.65" style="font-family:Times New Roman;font-size:14.00;">QuickTime</text>
</g>
<!-- quicktime&#45;&gt;libcamiface -->
<g id="edge33" class="edge"><title>quicktime&#45;&gt;libcamiface</title>
<path style="fill:none;stroke:black;stroke-dasharray:1,5;" d="M354,-114C365,-124 380,-136 392,-146"/>
<polygon style="fill:black;stroke:black;" points="390.169,-149.049 400,-153 394.779,-143.781 390.169,-149.049"/>
</g>
<!-- libdc1394 -->
<g id="node30" class="node"><title>libdc1394</title>
<ellipse style="fill:none;stroke:black;" cx="437" cy="-98" rx="39.9497" ry="18"/>
<text text-anchor="middle" x="437" y="-93.65" style="font-family:Times New Roman;font-size:14.00;">libdc1394</text>
</g>
<!-- libdc1394&#45;&gt;libcamiface -->
<g id="edge35" class="edge"><title>libdc1394&#45;&gt;libcamiface</title>
<path style="fill:none;stroke:black;stroke-dasharray:1,5;" d="M433,-116C431,-124 429,-133 427,-142"/>
<polygon style="fill:black;stroke:black;" points="423.521,-141.416 424,-152 430.226,-143.427 423.521,-141.416"/>
</g>
<!-- libprosilica -->
<g id="node32" class="node"><title>libprosilica</title>
<ellipse style="fill:none;stroke:black;" cx="538" cy="-98" rx="42.9497" ry="18"/>
<text text-anchor="middle" x="538" y="-93.65" style="font-family:Times New Roman;font-size:14.00;">libprosilica</text>
</g>
<!-- libprosilica&#45;&gt;libcamiface -->
<g id="edge37" class="edge"><title>libprosilica&#45;&gt;libcamiface</title>
<path style="fill:none;stroke:black;stroke-dasharray:1,5;" d="M514,-113C497,-123 474,-137 456,-149"/>
<polygon style="fill:black;stroke:black;" points="454.042,-146.084 447,-154 457.441,-152.203 454.042,-146.084"/>
</g>
<!-- wxpython -->
<g id="node34" class="node"><title>wxpython</title>
<ellipse style="fill:none;stroke:black;" cx="41" cy="-170" rx="41.1991" ry="18"/>
<text text-anchor="middle" x="41" y="-165.65" style="font-family:Times New Roman;font-size:14.00;">wxPython</text>
</g>
<!-- wxpython&#45;&gt;fview -->
<g id="edge41" class="edge"><title>wxpython&#45;&gt;fview</title>
<path style="fill:none;stroke:black;" d="M46,-188C53,-209 66,-242 89,-260 114,-281 199,-298 249,-307"/>
<polygon style="fill:black;stroke:black;" points="248.508,-310.471 259,-309 249.881,-303.607 248.508,-310.471"/>
</g>
<!-- wxpython&#45;&gt;wxglvideo -->
<g id="edge39" class="edge"><title>wxpython&#45;&gt;wxglvideo</title>
<path style="fill:none;stroke:black;" d="M71,-183C76,-185 81,-186 86,-188 148,-209 166,-206 227,-224 230,-225 233,-226 236,-227"/>
<polygon style="fill:black;stroke:black;" points="235.416,-230.479 246,-230 237.427,-223.774 235.416,-230.479"/>
</g>
<!-- opengl -->
<g id="node37" class="node"><title>opengl</title>
<a xlink:href="http://opengl.org/" xlink:title="OpenGL plotting library">
<ellipse style="fill:none;stroke:black;" cx="243" cy="-26" rx="37.8241" ry="18"/>
<text text-anchor="middle" x="243" y="-21.65" style="font-family:Times New Roman;font-size:14.00;">OpenGL</text>
</a>
</g>
<!-- pyglet -->
<g id="node39" class="node"><title>pyglet</title>
<ellipse style="fill:none;stroke:black;" cx="243" cy="-98" rx="29.9491" ry="18"/>
<text text-anchor="middle" x="243" y="-93.65" style="font-family:Times New Roman;font-size:14.00;">pyglet</text>
</g>
<!-- opengl&#45;&gt;pyglet -->
<g id="edge43" class="edge"><title>opengl&#45;&gt;pyglet</title>
<path style="fill:none;stroke:black;" d="M243,-44C243,-52 243,-61 243,-70"/>
<polygon style="fill:black;stroke:black;" points="239.5,-70 243,-80 246.5,-70 239.5,-70"/>
</g>
<!-- pyglet&#45;&gt;pygarrayimage -->
<g id="edge45" class="edge"><title>pyglet&#45;&gt;pygarrayimage</title>
<path style="fill:none;stroke:black;" d="M247,-116C249,-124 251,-133 253,-142"/>
<polygon style="fill:black;stroke:black;" points="249.774,-143.427 256,-152 256.479,-141.416 249.774,-143.427"/>
</g>
<!-- ipp -->
<g id="node41" class="node"><title>ipp</title>
<ellipse style="fill:none;stroke:black;" cx="651" cy="-242" rx="36.9498" ry="18"/>
<text text-anchor="middle" x="651" y="-237.65" style="font-family:Times New Roman;font-size:14.00;">Intel IPP</text>
</g>
<!-- ipp&#45;&gt;realtime_image_analysis -->
<g id="edge47" class="edge"><title>ipp&#45;&gt;realtime_image_analysis</title>
<path style="fill:none;stroke:black;" d="M624,-254C618,-256 613,-258 608,-260 565,-275 515,-289 477,-298"/>
<polygon style="fill:black;stroke:black;" points="475.573,-294.774 467,-301 477.584,-301.479 475.573,-294.774"/>
</g>
<!-- ipp&#45;&gt;fastimage -->
<g id="edge49" class="edge"><title>ipp&#45;&gt;fastimage</title>
<path style="fill:none;stroke:black;" d="M630,-257C615,-267 595,-282 578,-293"/>
<polygon style="fill:black;stroke:black;" points="575.9,-290.2 570,-299 580.1,-295.8 575.9,-290.2"/>
</g>
</g>
</svg>
